<?xml version="1.0" encoding="UTF-8" standalone="no"?>
<!-- Created with Inkscape (http://www.inkscape.org/) -->

<svg
   xmlns:dc="http://purl.org/dc/elements/1.1/"
   xmlns:cc="http://creativecommons.org/ns#"
   xmlns:rdf="http://www.w3.org/1999/02/22-rdf-syntax-ns#"
   xmlns:svg="http://www.w3.org/2000/svg"
   xmlns="http://www.w3.org/2000/svg"
   xmlns:sodipodi="http://sodipodi.sourceforge.net/DTD/sodipodi-0.dtd"
   xmlns:inkscape="http://www.inkscape.org/namespaces/inkscape"
   width="559.62469"
   height="373.29596"
   id="svg2"
   sodipodi:version="0.32"
   inkscape:version="0.91 r13725"
   version="1.0"
   sodipodi:docname="Bananas.svg"
   inkscape:export-filename="C:\Documents and Settings\Elembis\My Documents\Images\Shartak\Shartak.com\banana.png"
   inkscape:export-xdpi="25.797226"
   inkscape:export-ydpi="25.797226">
  <defs
     id="defs4" />
  <sodipodi:namedview
     id="base"
     pagecolor="#ffffff"
     bordercolor="#666666"
     borderopacity="1.0"
     gridtolerance="10000"
     guidetolerance="10"
     objecttolerance="10"
     inkscape:pageopacity="0.0"
     inkscape:pageshadow="2"
     inkscape:zoom="1"
     inkscape:cx="257.85399"
     inkscape:cy="231.60006"
     inkscape:document-units="px"
     inkscape:current-layer="layer1"
     inkscape:window-width="1920"
     inkscape:window-height="1025"
     inkscape:window-x="0"
     inkscape:window-y="0"
     showgrid="false"
     inkscape:window-maximized="1" />
  <metadata
     id="metadata7">
    <rdf:RDF>
      <cc:Work
         rdf:about="">
        <dc:format>image/svg+xml</dc:format>
        <dc:type
           rdf:resource="http://purl.org/dc/dcmitype/StillImage" />
      </cc:Work>
    </rdf:RDF>
  </metadata>
  <g
     inkscape:label="Layer 1"
     inkscape:groupmode="layer"
     id="layer1"
     transform="translate(-66.38047,-391.3222)">
    <g
       id="g9893"
       inkscape:transform-center-x="88.0002"
       inkscape:transform-center-y="113.00018">
      <path
         transform="translate(-17.85713,318.6479)"
         sodipodi:nodetypes="csccccc"
         id="path17976"
         d="M 543,119 C 543,119 547,177 531,189 C 515,201 397,320 397,320 L 419,345 L 562,248 L 573,121 L 543,119 z "
         style="fill:#ffc701;fill-opacity:1;fill-rule:evenodd;stroke:none;stroke-width:1px;stroke-linecap:butt;stroke-linejoin:miter;stroke-opacity:1" />
      <path
         sodipodi:nodetypes="csccccc"
         id="path18863"
         d="M 525.14247,437.64826 C 525.14247,437.64826 529.14247,495.64826 513.14247,507.64826 C 497.14247,519.64826 379.14247,638.64826 379.14247,638.64826 L 401.14247,663.64826 L 544.14247,566.64826 L 555.14247,439.64826 L 525.14247,437.64826 z "
         style="opacity:0.7;fill:black;fill-opacity:1;fill-rule:evenodd;stroke:none;stroke-width:1px;stroke-linecap:butt;stroke-linejoin:miter;stroke-opacity:1" />
    </g>
    <g
       id="g2783">
      <path
         id="path6424"
         d="M 519.9114,399.65406 L 483.38679,454.45323 C 483.38679,454.45323 454.12626,461.72103 439.29443,470.94146 C 424.46259,480.16189 377.85779,514.19114 274.74769,506.89067 C 171.63759,499.59021 156.32242,477.55739 133.97629,476.75109 C 111.63016,475.9448 77.83775,479.82705 69.64709,486.06507 C 61.45643,492.3031 71.25003,511.09366 71.25003,511.09366 C 71.25003,511.09366 101.21736,578.4951 210.30564,606.14897 C 319.39391,633.80284 448.5453,576.70729 448.5453,576.70729 L 538.74205,411.07361 L 519.9114,399.65406 z "
         style="fill:#ffc701;fill-opacity:1;fill-rule:evenodd;stroke:none;stroke-width:2;stroke-linecap:butt;stroke-linejoin:miter;stroke-miterlimit:4;stroke-dasharray:none;stroke-opacity:1" />
      <path
         id="path1895"
         d="M 517.00522,404.00971 L 483.38022,454.44721 C 483.38022,454.44721 454.1183,461.72678 439.28647,470.94721 C 424.45462,480.16764 377.86532,514.18518 274.75522,506.88471 C 171.64512,499.58425 156.3201,477.56601 133.97397,476.75971 C 111.62785,475.95343 77.85213,479.83419 69.66147,486.07221 C 69.2897,486.35536 68.96174,486.67778 68.66147,487.00971 C 87.94596,484.21174 116.37515,484.78053 136.38022,488.41596 C 174.77085,495.39252 209.97775,518.65573 299.50522,516.22846 C 426.73709,512.73998 441.6649,473.10304 459.38022,468.41596 C 484.00837,461.89991 530.48444,452.34626 517.00522,404.00971 z "
         style="fill:white;fill-opacity:1;fill-rule:evenodd;stroke:none;stroke-width:2;stroke-linecap:butt;stroke-linejoin:miter;stroke-miterlimit:4;stroke-dasharray:none;stroke-opacity:1;opacity:0.4" />
      <path
         id="path9086"
         d="M 106.96213,554.70796 C 128.49383,573.41467 161.44348,593.76255 210.30593,606.14918 C 222.07021,609.13143 234.0755,611.11073 246.11929,612.29962 L 284.83188,604.45269 C 220.5418,614.51673 142.31641,575.18761 106.96213,554.70796 z "
         style="opacity:0.4;fill:black;fill-opacity:1;fill-rule:evenodd;stroke:none;stroke-width:1px;stroke-linecap:butt;stroke-linejoin:miter;stroke-opacity:1" />
    </g>
    <path
       inkscape:connector-curvature="0"
       style="opacity:1;fill:#9b7f1c;fill-opacity:1;fill-rule:evenodd;stroke:none;stroke-width:2;stroke-linecap:butt;stroke-linejoin:miter;stroke-miterlimit:4;stroke-dasharray:none;stroke-opacity:1"
       d="m 528.14287,438.6479 c 0,0 21,55 15,69 -6,14 -41,94 -106,124 -65,30 -232,26 -236,18 -4,-8 0,76 101,107 101,31 230.08904,-36.90729 253,-59 29,-28 84,-100 68,-154 -16,-54 -28,-38 -37,-53 -9,-15 -19,-44 -19,-56 0,-12 -38,4 -39,4 z"
       id="path12644"
       sodipodi:nodetypes="cssssssssc"
       inkscape:transform-center-x="126"
       inkscape:transform-center-y="181" />
    <path
       inkscape:connector-curvature="0"
       style="opacity:0.6;fill:#000000;fill-opacity:1;fill-rule:evenodd;stroke:none;stroke-width:2;stroke-linecap:butt;stroke-linejoin:miter;stroke-miterlimit:4;stroke-dasharray:none;stroke-opacity:1"
       d="m 533.7244,527.63751 c -15.19469,29.64786 -47.22491,81.21438 -96.59375,104 -64.99999,30 -232,26 -236,18 -1,-2 -1.48437,1.76562 -0.0937,9 l 0.0312,0.125 2.0625,6.875 c -1e-5,0 -0.16245,0.015 -0.375,0.0937 0.10368,0.36147 0.23276,0.7547 0.34375,1.125 0.1469,0.48927 0.27735,0.96461 0.4375,1.46875 0.28804,0.90672 0.63602,1.86067 0.96875,2.8125 0.11184,0.31995 0.19543,0.644 0.3125,0.96875 0.2259,0.62845 0.50411,1.26062 0.75,1.90625 0.28355,0.74248 0.53272,1.48628 0.84375,2.25 0.2204,0.54264 0.48407,1.10358 0.71875,1.65625 0.31499,0.73966 0.6274,1.46236 0.96875,2.21875 0.16217,0.36044 0.3317,0.72974 0.5,1.09375 1.09177,2.36133 2.29104,4.79282 3.65625,7.28125 0.0356,0.0648 0.0892,0.12265 0.125,0.1875 0.016,0.0291 0.0152,0.0646 0.0312,0.0937 0.36199,0.65442 0.74306,1.30751 1.125,1.96875 0.0352,0.0611 0.0583,0.12634 0.0937,0.1875 0.4036,0.69603 0.82377,1.39109 1.25,2.09375 0.45547,0.75087 0.92431,1.52383 1.40625,2.28125 0.008,0.0122 0.0235,0.0191 0.0312,0.0312 0.46162,0.72508 0.91959,1.45729 1.40625,2.1875 0.003,0.005 0.0281,-0.005 0.0312,0 40.79912,17.90201 185.46875,-16.4375 250.375,-63.90625 45.69018,-33.41522 60.67589,-79.84139 65.59375,-106 z"
       id="path8981" />
    <path
       inkscape:connector-curvature="0"
       style="opacity:0.4;fill:#000000;fill-opacity:1;fill-rule:evenodd;stroke:none;stroke-width:1px;stroke-linecap:butt;stroke-linejoin:miter;stroke-opacity:1"
       d="m 559.79937,430.17885 c -1.61428,0.0282 -3.4144,0.2431 -5.3125,0.5625 6.27105,19.25501 36.34718,112.96673 33.65625,130.90625 -3,20 -34.83369,92.70022 -87,124 -35,21 -111,54 -138,59 -17.08755,3.16436 -50.52699,7.81761 -76.65625,6.46875 4.94823,1.98371 10.1448,3.83962 15.65625,5.53125 101,31 230.08904,-36.90729 253,-59 29,-28 84,-100 68,-154 -16,-54 -28,-38 -37,-53 -9,-15 -19,-44 -19,-56 0,-3.375 -3.00058,-4.54456 -7.34375,-4.46875 z"
       id="path17089" />
    <g
       id="g9903">
      <path
         sodipodi:nodetypes="cssccccc"
         id="path1933"
         d="M 533.14287,448.6479 C 533.14287,448.6479 514.14287,467.6479 519.14287,485.6479 C 524.14287,503.6479 541.14287,547.6479 478.14287,597.6479 C 415.14287,647.6479 232.14287,734.6479 109.14287,639.6479 C 74.14287,599.6479 94.14287,573.6479 94.14287,573.6479 C 94.14287,573.6479 114.12992,570.75757 122.14287,571.6479 C 132.14287,568.6479 179.14287,571.6479 223.14287,573.6479 C 282.05327,572.49008 443.14287,497.6479 474.14287,468.6479 C 474.14287,468.6479 512.14287,422.6479 513.14287,414.6479 C 514.14287,406.6479 540.14287,430.6479 541.14287,437.6479 C 542.14287,444.6479 533.14287,447.6479 533.14287,448.6479 z "
         style="fill:#ffc701;fill-opacity:1;fill-rule:evenodd;stroke:none;stroke-width:2;stroke-linecap:butt;stroke-linejoin:miter;stroke-miterlimit:4;stroke-dasharray:none;stroke-opacity:1" />
      <path
         sodipodi:nodetypes="cssccccsscc"
         id="path7201"
         d="M 514.60028,413.04467 C 513.79169,413.14037 513.25653,413.63842 513.13153,414.63842 C 512.13153,422.63842 474.13153,468.63841 474.13153,468.63842 C 443.13153,497.63842 282.04191,572.4806 223.13152,573.63842 C 179.13152,571.63842 132.13152,568.63842 122.13152,571.63842 C 114.11858,570.74809 94.13152,573.63842 94.13152,573.63842 C 94.13152,573.63842 93.7656,574.16602 93.22527,575.07592 C 104.18437,578.28284 124.12588,582.75014 156.38152,583.60717 C 230.77215,585.58373 262.00653,581.54467 326.50653,556.41967 C 394.13686,530.0753 484.82418,496.21955 520.38153,415.35717 C 517.97095,413.81698 515.90107,412.89071 514.60028,413.04467 z "
         style="opacity:0.4;fill:white;fill-opacity:1;fill-rule:evenodd;stroke:none;stroke-width:2;stroke-linecap:butt;stroke-linejoin:miter;stroke-miterlimit:4;stroke-dasharray:none;stroke-opacity:1" />
      <path
         id="path4646"
         d="M 518.58062,482.8981 C 510.39544,511.03311 477.26645,585.47414 350.14312,628.6481 C 194.69709,681.44109 156.81818,651.08254 106.61187,636.61685 C 107.43132,637.61484 108.2539,638.63184 109.14312,639.6481 C 232.14312,734.6481 415.14312,647.6481 478.14312,597.6481 C 541.14312,547.6481 524.14312,503.6481 519.14312,485.6481 C 518.88851,484.73149 518.71644,483.81726 518.58062,482.8981 z "
         style="opacity:0.4;fill:black;fill-opacity:1;fill-rule:evenodd;stroke:none;stroke-width:1px;stroke-linecap:butt;stroke-linejoin:miter;stroke-opacity:1" />
    </g>
    <g
       id="g9946">
      <path
         sodipodi:nodetypes="czsssz"
         id="path23294"
         d="M 534.47367,391.42537 C 528.72367,389.92537 508.71616,405.72925 509.06846,411.02017 C 509.42029,416.30405 528.53454,433.43637 540.64281,437.57407 C 544.64281,438.57407 566.64281,436.57407 567.64281,432.57407 C 568.64281,428.57407 568.64281,411.57407 564.64281,407.57407 C 560.64281,403.57407 541.16441,393.17078 534.47367,391.42537 z "
         style="fill:#884a13;fill-opacity:1;fill-rule:evenodd;stroke:none;stroke-width:4;stroke-linecap:butt;stroke-linejoin:miter;stroke-miterlimit:4;stroke-dasharray:none;stroke-opacity:1" />
      <path
         sodipodi:nodetypes="czsssz"
         id="path22407"
         d="M 534.47374,391.42502 C 528.72374,389.92502 508.71623,405.7289 509.06853,411.01982 C 509.42036,416.3037 528.53461,433.43602 540.64288,437.57372 C 544.64288,438.57372 566.64288,436.57372 567.64288,432.57372 C 568.64288,428.57372 568.64288,411.57372 564.64288,407.57372 C 560.64288,403.57372 541.16448,393.17043 534.47374,391.42502 z "
         style="fill:#884a13;fill-opacity:1;fill-rule:evenodd;stroke:none;stroke-width:1px;stroke-linecap:butt;stroke-linejoin:miter;stroke-opacity:1" />
      <path
         id="path25958"
         d="M 533.23672,391.3354 C 526.30206,391.85508 508.75019,406.06266 509.08047,411.0229 C 509.222,413.14841 512.41917,417.17996 516.95547,421.5229 C 517.24178,413.18494 521.37892,401.08827 540.67422,393.7729 C 538.17765,392.66554 536.00097,391.82417 534.48672,391.42915 C 534.12734,391.3354 533.69903,391.30075 533.23672,391.3354 z "
         style="opacity:0.3;fill:white;fill-opacity:1;fill-rule:evenodd;stroke:none;stroke-width:1px;stroke-linecap:butt;stroke-linejoin:miter;stroke-opacity:1" />
      <path
         id="path26854"
         d="M 564.58087,407.52257 C 564.73328,425.7813 549.04695,433.48138 538.20587,436.61632 C 539.04145,436.98636 539.85952,437.31721 540.64337,437.58507 C 544.64338,438.58507 566.64337,436.58507 567.64337,432.58507 C 568.64338,428.58507 568.64337,411.58507 564.64337,407.58507 C 564.62587,407.56758 564.59896,407.54031 564.58087,407.52257 z "
         style="opacity:0.4;fill:black;fill-opacity:1;fill-rule:evenodd;stroke:none;stroke-width:1px;stroke-linecap:butt;stroke-linejoin:miter;stroke-opacity:1" />
    </g>
  </g>
</svg>
